<svg width="500" height="75" viewBox="0 0 500 75" fill="none" xmlns="http://www.w3.org/2000/svg">
<g clip-path="url(#clip0_2_25)">
<path d="M44.8422 49.2306C41.6658 49.2306 38.908 50.996 37.4104 53.5895C36.6681 54.8754 36.2106 56.3575 36.2106 57.9485C36.2106 62.7521 40.0819 66.6664 44.8422 66.6664C49.6025 66.6664 53.4738 62.7521 53.4738 57.9485C53.4738 56.3575 53.0206 54.8754 52.2739 53.5895C50.7763 50.996 48.0229 49.2306 44.8422 49.2306Z" fill="#3B3C98"/>
<path d="M105.263 49.2306C102.087 49.2306 99.3292 50.996 97.8316 53.5895C97.0893 54.8754 96.6318 56.3575 96.6318 57.9485C96.6318 62.7521 100.503 66.6664 105.263 66.6664C110.024 66.6664 113.895 62.7521 113.895 57.9485C113.895 56.3575 113.442 54.8754 112.695 53.5895C111.198 50.996 108.444 49.2306 105.263 49.2306Z" fill="#3B3C98"/>
<path d="M131.158 40.5127V36.1537L105.263 28.6781L75.0528 10H27.579V14.359H53.4738V18.7179H6V23.0769H57.7896V27.4358H14.6316V31.7948H36.2106V36.1537H27.579V40.5127H10.3158V44.8717H31.8948V49.2306H27.579V53.5896H14.6316V57.9485H31.8948C31.8948 56.4142 32.2055 54.9583 32.6889 53.5896C34.4756 48.5245 39.2144 44.8717 44.8422 44.8717C50.4743 44.8717 55.2088 48.5245 56.9955 53.5896C57.4746 54.9583 57.7896 56.4142 57.7896 57.9485H92.316C92.316 56.4142 92.6267 54.9583 93.11 53.5896C94.8968 48.5245 99.6356 44.8717 105.263 44.8717C110.895 44.8717 115.63 48.5245 117.417 53.5896C117.896 54.9583 118.211 56.4142 118.211 57.9485H131.158V53.5896H135.474V40.5127H131.158Z" fill="#3B3C98"/>
<path d="M151.783 68V6.10645H176.821C182.801 6.10645 187.519 7.90601 190.977 11.5051C194.463 15.0759 196.206 19.7661 196.206 25.5757C196.206 31.5554 194.363 36.4439 190.679 40.2414C187.024 44.0106 182.348 45.8952 176.651 45.8952H166.747V68H151.783ZM166.747 36.118H173.378C176.24 36.118 178.238 35.2253 179.372 33.4399C180.534 31.6262 181.115 29.3024 181.115 26.4684C181.115 23.6061 180.534 21.2823 179.372 19.4969C178.238 17.6832 176.24 16.7621 173.378 16.7338H166.747V36.118ZM182.433 68L171.083 41.0491L184.345 37.2658L198.756 68H182.433ZM201.944 68V6.10645H241.818V18.0091H216.312V31.357H238.077V41.8568H216.312V56.5225H242.456V68H201.944ZM246.749 68V6.10645H261.797L277.568 40.0289C277.965 40.9357 278.334 41.9135 278.674 42.962C279.014 44.0106 279.297 44.9883 279.524 45.8952H279.779C279.722 44.9316 279.694 43.9397 279.694 42.9195C279.694 41.8709 279.694 40.8649 279.694 39.9013V6.10645H292.404V68H277.823L261.5 33.7375C261.131 32.859 260.777 31.9379 260.437 30.9744C260.097 29.9825 259.799 29.0331 259.544 28.1263H259.332C259.389 29.0898 259.417 30.025 259.417 30.9319C259.445 31.8388 259.459 32.7881 259.459 33.78V68H246.749ZM297.718 68V58.7755L320.12 35.5654C321.792 33.5816 323.238 31.5695 324.456 29.5291C325.675 27.4603 326.284 25.3065 326.284 23.0677C326.284 20.3754 325.675 18.4483 324.456 17.2864C323.238 16.1245 321.651 15.5435 319.695 15.5435C317.626 15.5435 315.954 16.2095 314.679 17.5415C313.404 18.8734 312.766 21.509 312.766 25.4482V27.2336H297.76V23.4928C297.76 18.1933 299.787 13.829 303.839 10.3999C307.92 6.97081 313.29 5.25626 319.95 5.25626C326.893 5.25626 332.164 6.7866 335.764 9.84727C339.363 12.9079 341.176 17.0739 341.205 22.345C341.205 26.2559 340.369 29.7558 338.697 32.8448C337.053 35.9338 334.701 39.0795 331.64 42.2819L319.993 56.0974H342.65V68H297.718ZM347.581 68V6.10645H372.662C378.811 6.10645 383.332 7.48092 386.222 10.2299C389.141 12.9504 390.601 16.7905 390.601 21.7499C390.601 25.3207 389.85 28.2821 388.348 30.6343C386.874 32.9582 384.919 34.5452 382.481 35.3954V35.5654C385.485 36.3306 387.965 37.9601 389.92 40.454C391.904 42.9195 392.896 46.3628 392.896 50.7837C392.896 56.1682 391.182 60.3908 387.752 63.4515C384.352 66.4838 379.647 68 373.639 68H347.581ZM362.119 58.0953H369.856C372.52 58.0953 374.504 57.316 375.807 55.7573C377.111 54.1703 377.763 52.0448 377.763 49.3809C377.763 46.6887 377.111 44.5349 375.807 42.9195C374.504 41.3042 372.52 40.4965 369.856 40.4965H362.119V58.0953ZM362.119 32.6748H369.048C371.627 32.6748 373.498 31.9521 374.66 30.5068C375.822 29.0615 376.403 27.0352 376.403 24.428C376.403 21.8207 375.822 19.8511 374.66 18.5192C373.498 17.1589 371.627 16.4787 369.048 16.4787H362.119V32.6748ZM398.04 45.4276V6.10645H412.961V47.5105C412.961 51.5347 413.626 54.3829 414.958 56.0549C416.319 57.7269 418.26 58.5629 420.782 58.5629C423.276 58.5629 425.189 57.7269 426.521 56.0549C427.881 54.3829 428.561 51.5347 428.561 47.5105V6.10645H443.525V45.4276C443.525 53.391 441.541 59.2856 437.573 63.1114C433.634 66.9373 428.108 68.8502 420.995 68.8502C413.655 68.8502 407.987 66.9373 403.991 63.1114C400.024 59.2856 398.04 53.391 398.04 45.4276ZM465.715 68V44.0248L446.415 6.10645H462.611L472.559 26.0858C472.87 26.7376 473.14 27.3328 473.366 27.8712C473.621 28.4097 473.876 28.9906 474.131 29.6141H474.301C474.528 28.9906 474.755 28.4097 474.982 27.8712C475.237 27.3328 475.534 26.7376 475.874 26.0858L485.651 6.10645H500.105L480.89 43.9822V68H465.715Z" fill="black"/>
</g>
<defs>
<clipPath id="clip0_2_25">
<rect width="500" height="75" fill="white"/>
</clipPath>
</defs>
</svg>
